<svg aria-roledescription="er" role="graphics-document document" viewBox="0 0 738.3428344726562 752" style="max-width: 738.343px; background-color: rgb(255, 255, 255);" xmlns:xlink="http://www.w3.org/1999/xlink" xmlns="http://www.w3.org/2000/svg" width="100%" id="mermaid-1762868178659"><style>#mermaid-1762868178659{font-family:"trebuchet ms",verdana,arial,sans-serif;font-size:16px;fill:#333;}#mermaid-1762868178659 .error-icon{fill:#552222;}#mermaid-1762868178659 .error-text{fill:#552222;stroke:#552222;}#mermaid-1762868178659 .edge-thickness-normal{stroke-width:2px;}#mermaid-1762868178659 .edge-thickness-thick{stroke-width:3.5px;}#mermaid-1762868178659 .edge-pattern-solid{stroke-dasharray:0;}#mermaid-1762868178659 .edge-pattern-dashed{stroke-dasharray:3;}#mermaid-1762868178659 .edge-pattern-dotted{stroke-dasharray:2;}#mermaid-1762868178659 .marker{fill:#333333;stroke:#333333;}#mermaid-1762868178659 .marker.cross{stroke:#333333;}#mermaid-1762868178659 svg{font-family:"trebuchet ms",verdana,arial,sans-serif;font-size:16px;}#mermaid-1762868178659 .entityBox{fill:#ECECFF;stroke:#9370DB;}#mermaid-1762868178659 .attributeBoxOdd{fill:#ffffff;stroke:#9370DB;}#mermaid-1762868178659 .attributeBoxEven{fill:#f2f2f2;stroke:#9370DB;}#mermaid-1762868178659 .relationshipLabelBox{fill:hsl(80, 100%, 96.2745098039%);opacity:0.7;background-color:hsl(80, 100%, 96.2745098039%);}#mermaid-1762868178659 .relationshipLabelBox rect{opacity:0.5;}#mermaid-1762868178659 .relationshipLine{stroke:#333333;}#mermaid-1762868178659 .entityTitleText{text-anchor:middle;font-size:18px;fill:#333;}#mermaid-1762868178659 #MD_PARENT_START{fill:#f5f5f5!important;stroke:#333333!important;stroke-width:1;}#mermaid-1762868178659 #MD_PARENT_END{fill:#f5f5f5!important;stroke:#333333!important;stroke-width:1;}#mermaid-1762868178659 :root{--mermaid-font-family:"trebuchet ms",verdana,arial,sans-serif;}</style><g/><defs><marker orient="auto" markerHeight="240" markerWidth="190" refY="7" refX="0" id="MD_PARENT_START"><path d="M 18,7 L9,13 L1,7 L9,1 Z"/></marker></defs><defs><marker orient="auto" markerHeight="28" markerWidth="20" refY="7" refX="19" id="MD_PARENT_END"><path d="M 18,7 L9,13 L1,7 L9,1 Z"/></marker></defs><defs><marker orient="auto" markerHeight="18" markerWidth="18" refY="9" refX="0" id="ONLY_ONE_START"><path d="M9,0 L9,18 M15,0 L15,18" fill="none" stroke="gray"/></marker></defs><defs><marker orient="auto" markerHeight="18" markerWidth="18" refY="9" refX="18" id="ONLY_ONE_END"><path d="M3,0 L3,18 M9,0 L9,18" fill="none" stroke="gray"/></marker></defs><defs><marker orient="auto" markerHeight="18" markerWidth="30" refY="9" refX="0" id="ZERO_OR_ONE_START"><circle r="6" cy="9" cx="21" fill="white" stroke="gray"/><path d="M9,0 L9,18" fill="none" stroke="gray"/></marker></defs><defs><marker orient="auto" markerHeight="18" markerWidth="30" refY="9" refX="30" id="ZERO_OR_ONE_END"><circle r="6" cy="9" cx="9" fill="white" stroke="gray"/><path d="M21,0 L21,18" fill="none" stroke="gray"/></marker></defs><defs><marker orient="auto" markerHeight="36" markerWidth="45" refY="18" refX="18" id="ONE_OR_MORE_START"><path d="M0,18 Q 18,0 36,18 Q 18,36 0,18 M42,9 L42,27" fill="none" stroke="gray"/></marker></defs><defs><marker orient="auto" markerHeight="36" markerWidth="45" refY="18" refX="27" id="ONE_OR_MORE_END"><path d="M3,9 L3,27 M9,18 Q27,0 45,18 Q27,36 9,18" fill="none" stroke="gray"/></marker></defs><defs><marker orient="auto" markerHeight="36" markerWidth="57" refY="18" refX="18" id="ZERO_OR_MORE_START"><circle r="6" cy="18" cx="48" fill="white" stroke="gray"/><path d="M0,18 Q18,0 36,18 Q18,36 0,18" fill="none" stroke="gray"/></marker></defs><defs><marker orient="auto" markerHeight="36" markerWidth="57" refY="18" refX="39" id="ZERO_OR_MORE_END"><circle r="6" cy="18" cx="9" fill="white" stroke="gray"/><path d="M21,18 Q39,0 57,18 Q39,36 21,18" fill="none" stroke="gray"/></marker></defs><path style="stroke: gray; fill: none;" marker-start="url(#ZERO_OR_MORE_START)" marker-end="url(#ONLY_ONE_END)" d="M342.48516845703125,476L342.48516845703125,484.3333333333333C342.48516845703125,492.6666666666667,342.48516845703125,509.3333333333333,342.48516845703125,526C342.48516845703125,542.6666666666666,342.48516845703125,559.3333333333334,342.48516845703125,567.6666666666666L342.48516845703125,576" class="er relationshipLine"/><path style="stroke: gray; fill: none;" marker-start="url(#ZERO_OR_MORE_START)" marker-end="url(#ONLY_ONE_END)" d="M92.4822998046875,143L92.4822998046875,153.16666666666666C92.4822998046875,163.33333333333334,92.4822998046875,183.66666666666666,120.15241368611653,211.65268220290605C147.82252756754556,239.6386977391454,203.16275533040366,275.2773954782908,230.83286921183267,293.09674434786353L258.5029830932617,310.91609321743624" class="er relationshipLine"/><path style="stroke: gray; fill: none;" marker-start="url(#ZERO_OR_MORE_START)" marker-end="url(#ONLY_ONE_END)" d="M342.48516845703125,154L342.48516845703125,162.33333333333334C342.48516845703125,170.66666666666666,342.48516845703125,187.33333333333334,342.48516845703125,204C342.48516845703125,220.66666666666666,342.48516845703125,237.33333333333334,342.48516845703125,245.66666666666666L342.48516845703125,254" class="er relationshipLine"/><path style="stroke: gray; fill: none;" marker-start="url(#ZERO_OR_MORE_START)" marker-end="url(#ONLY_ONE_END)" d="M551.0608591259036,154L545.4887620757448,162.33333333333334C539.9166650255861,170.66666666666666,528.7724709252686,187.33333333333334,508.00688670775145,209.63325351521178C487.2413024902344,231.9331736970902,456.8543281555176,259.8663473941804,441.6608409881592,273.83293424272557L426.4673538208008,287.79952109127066" class="er relationshipLine"/><path style="stroke: gray; fill: none;" marker-start="url(#ZERO_OR_MORE_START)" marker-end="url(#ONLY_ONE_END)" d="M624.4929980416583,154L628.0542516029119,162.33333333333334C631.6155051641655,170.66666666666666,638.7380122866725,187.33333333333334,642.2992658479261,213.16666666666666C645.8605194091797,239,645.8605194091797,274,645.8605194091797,291.5L645.8605194091797,309" class="er relationshipLine"/><g transform="translate(258.5029830932617,254 )" id="entity-products-ce7ac559-5ef1-5445-aa6b-0190aa04e35c"><rect height="222" width="167.96437072753906" y="0" x="0" class="er entityBox"/><text style="dominant-baseline: middle; text-anchor: middle; font-size: 12px;" transform="translate(83.98218536376953,12)" y="0" x="0" id="text-entity-products-ce7ac559-5ef1-5445-aa6b-0190aa04e35c" class="er entityLabel">products</text><rect height="22" width="69.05792236328125" y="24" x="0" class="er attributeBoxOdd"/><text style="dominant-baseline: middle; font-size: 10.2px;" transform="translate(5,35)" y="0" x="0" id="text-entity-products-ce7ac559-5ef1-5445-aa6b-0190aa04e35c-attr-1-type" class="er entityLabel">bigint</text><rect height="22" width="76.21876525878906" y="24" x="69.05792236328125" class="er attributeBoxOdd"/><text style="dominant-baseline: middle; font-size: 10.2px;" transform="translate(74.05792236328125,35)" y="0" x="0" id="text-entity-products-ce7ac559-5ef1-5445-aa6b-0190aa04e35c-attr-1-name" class="er entityLabel">id</text><rect height="22" width="22.68768310546875" y="24" x="145.2766876220703" class="er attributeBoxOdd"/><text style="dominant-baseline: middle; font-size: 10.2px;" transform="translate(150.2766876220703,35)" y="0" x="0" id="text-entity-products-ce7ac559-5ef1-5445-aa6b-0190aa04e35c-attr-1-key" class="er entityLabel">PK</text><rect height="22" width="69.05792236328125" y="46" x="0" class="er attributeBoxEven"/><text style="dominant-baseline: middle; font-size: 10.2px;" transform="translate(5,57)" y="0" x="0" id="text-entity-products-ce7ac559-5ef1-5445-aa6b-0190aa04e35c-attr-2-type" class="er entityLabel">bigint</text><rect height="22" width="76.21876525878906" y="46" x="69.05792236328125" class="er attributeBoxEven"/><text style="dominant-baseline: middle; font-size: 10.2px;" transform="translate(74.05792236328125,57)" y="0" x="0" id="text-entity-products-ce7ac559-5ef1-5445-aa6b-0190aa04e35c-attr-2-name" class="er entityLabel">user_id</text><rect height="22" width="22.68768310546875" y="46" x="145.2766876220703" class="er attributeBoxEven"/><text style="dominant-baseline: middle; font-size: 10.2px;" transform="translate(150.2766876220703,57)" y="0" x="0" id="text-entity-products-ce7ac559-5ef1-5445-aa6b-0190aa04e35c-attr-2-key" class="er entityLabel">FK</text><rect height="22" width="69.05792236328125" y="68" x="0" class="er attributeBoxOdd"/><text style="dominant-baseline: middle; font-size: 10.2px;" transform="translate(5,79)" y="0" x="0" id="text-entity-products-ce7ac559-5ef1-5445-aa6b-0190aa04e35c-attr-3-type" class="er entityLabel">varchar(255)</text><rect height="22" width="76.21876525878906" y="68" x="69.05792236328125" class="er attributeBoxOdd"/><text style="dominant-baseline: middle; font-size: 10.2px;" transform="translate(74.05792236328125,79)" y="0" x="0" id="text-entity-products-ce7ac559-5ef1-5445-aa6b-0190aa04e35c-attr-3-name" class="er entityLabel">img_url</text><rect height="22" width="22.68768310546875" y="68" x="145.2766876220703" class="er attributeBoxOdd"/><text style="dominant-baseline: middle; font-size: 10.2px;" transform="translate(150.2766876220703,79)" y="0" x="0" id="text-entity-products-ce7ac559-5ef1-5445-aa6b-0190aa04e35c-attr-3-key" class="er entityLabel"/><rect height="22" width="69.05792236328125" y="90" x="0" class="er attributeBoxEven"/><text style="dominant-baseline: middle; font-size: 10.2px;" transform="translate(5,101)" y="0" x="0" id="text-entity-products-ce7ac559-5ef1-5445-aa6b-0190aa04e35c-attr-4-type" class="er entityLabel">varchar(255)</text><rect height="22" width="76.21876525878906" y="90" x="69.05792236328125" class="er attributeBoxEven"/><text style="dominant-baseline: middle; font-size: 10.2px;" transform="translate(74.05792236328125,101)" y="0" x="0" id="text-entity-products-ce7ac559-5ef1-5445-aa6b-0190aa04e35c-attr-4-name" class="er entityLabel">product_name</text><rect height="22" width="22.68768310546875" y="90" x="145.2766876220703" class="er attributeBoxEven"/><text style="dominant-baseline: middle; font-size: 10.2px;" transform="translate(150.2766876220703,101)" y="0" x="0" id="text-entity-products-ce7ac559-5ef1-5445-aa6b-0190aa04e35c-attr-4-key" class="er entityLabel"/><rect height="22" width="69.05792236328125" y="112" x="0" class="er attributeBoxOdd"/><text style="dominant-baseline: middle; font-size: 10.2px;" transform="translate(5,123)" y="0" x="0" id="text-entity-products-ce7ac559-5ef1-5445-aa6b-0190aa04e35c-attr-5-type" class="er entityLabel">varchar(255)</text><rect height="22" width="76.21876525878906" y="112" x="69.05792236328125" class="er attributeBoxOdd"/><text style="dominant-baseline: middle; font-size: 10.2px;" transform="translate(74.05792236328125,123)" y="0" x="0" id="text-entity-products-ce7ac559-5ef1-5445-aa6b-0190aa04e35c-attr-5-name" class="er entityLabel">brand_name</text><rect height="22" width="22.68768310546875" y="112" x="145.2766876220703" class="er attributeBoxOdd"/><text style="dominant-baseline: middle; font-size: 10.2px;" transform="translate(150.2766876220703,123)" y="0" x="0" id="text-entity-products-ce7ac559-5ef1-5445-aa6b-0190aa04e35c-attr-5-key" class="er entityLabel"/><rect height="22" width="69.05792236328125" y="134" x="0" class="er attributeBoxEven"/><text style="dominant-baseline: middle; font-size: 10.2px;" transform="translate(5,145)" y="0" x="0" id="text-entity-products-ce7ac559-5ef1-5445-aa6b-0190aa04e35c-attr-6-type" class="er entityLabel">int</text><rect height="22" width="76.21876525878906" y="134" x="69.05792236328125" class="er attributeBoxEven"/><text style="dominant-baseline: middle; font-size: 10.2px;" transform="translate(74.05792236328125,145)" y="0" x="0" id="text-entity-products-ce7ac559-5ef1-5445-aa6b-0190aa04e35c-attr-6-name" class="er entityLabel">price</text><rect height="22" width="22.68768310546875" y="134" x="145.2766876220703" class="er attributeBoxEven"/><text style="dominant-baseline: middle; font-size: 10.2px;" transform="translate(150.2766876220703,145)" y="0" x="0" id="text-entity-products-ce7ac559-5ef1-5445-aa6b-0190aa04e35c-attr-6-key" class="er entityLabel"/><rect height="22" width="69.05792236328125" y="156" x="0" class="er attributeBoxOdd"/><text style="dominant-baseline: middle; font-size: 10.2px;" transform="translate(5,167)" y="0" x="0" id="text-entity-products-ce7ac559-5ef1-5445-aa6b-0190aa04e35c-attr-7-type" class="er entityLabel">string</text><rect height="22" width="76.21876525878906" y="156" x="69.05792236328125" class="er attributeBoxOdd"/><text style="dominant-baseline: middle; font-size: 10.2px;" transform="translate(74.05792236328125,167)" y="0" x="0" id="text-entity-products-ce7ac559-5ef1-5445-aa6b-0190aa04e35c-attr-7-name" class="er entityLabel">explanation</text><rect height="22" width="22.68768310546875" y="156" x="145.2766876220703" class="er attributeBoxOdd"/><text style="dominant-baseline: middle; font-size: 10.2px;" transform="translate(150.2766876220703,167)" y="0" x="0" id="text-entity-products-ce7ac559-5ef1-5445-aa6b-0190aa04e35c-attr-7-key" class="er entityLabel"/><rect height="22" width="69.05792236328125" y="178" x="0" class="er attributeBoxEven"/><text style="dominant-baseline: middle; font-size: 10.2px;" transform="translate(5,189)" y="0" x="0" id="text-entity-products-ce7ac559-5ef1-5445-aa6b-0190aa04e35c-attr-8-type" class="er entityLabel">timestamp</text><rect height="22" width="76.21876525878906" y="178" x="69.05792236328125" class="er attributeBoxEven"/><text style="dominant-baseline: middle; font-size: 10.2px;" transform="translate(74.05792236328125,189)" y="0" x="0" id="text-entity-products-ce7ac559-5ef1-5445-aa6b-0190aa04e35c-attr-8-name" class="er entityLabel">created_at</text><rect height="22" width="22.68768310546875" y="178" x="145.2766876220703" class="er attributeBoxEven"/><text style="dominant-baseline: middle; font-size: 10.2px;" transform="translate(150.2766876220703,189)" y="0" x="0" id="text-entity-products-ce7ac559-5ef1-5445-aa6b-0190aa04e35c-attr-8-key" class="er entityLabel"/><rect height="22" width="69.05792236328125" y="200" x="0" class="er attributeBoxOdd"/><text style="dominant-baseline: middle; font-size: 10.2px;" transform="translate(5,211)" y="0" x="0" id="text-entity-products-ce7ac559-5ef1-5445-aa6b-0190aa04e35c-attr-9-type" class="er entityLabel">timestamp</text><rect height="22" width="76.21876525878906" y="200" x="69.05792236328125" class="er attributeBoxOdd"/><text style="dominant-baseline: middle; font-size: 10.2px;" transform="translate(74.05792236328125,211)" y="0" x="0" id="text-entity-products-ce7ac559-5ef1-5445-aa6b-0190aa04e35c-attr-9-name" class="er entityLabel">updated_at</text><rect height="22" width="22.68768310546875" y="200" x="145.2766876220703" class="er attributeBoxOdd"/><text style="dominant-baseline: middle; font-size: 10.2px;" transform="translate(150.2766876220703,211)" y="0" x="0" id="text-entity-products-ce7ac559-5ef1-5445-aa6b-0190aa04e35c-attr-9-key" class="er entityLabel"/></g><g transform="translate(264.964599609375,576 )" id="entity-users-33ae1e26-be31-5c1d-bf65-e859e9d0308e"><rect height="156" width="155.0411376953125" y="0" x="0" class="er entityBox"/><text style="dominant-baseline: middle; text-anchor: middle; font-size: 12px;" transform="translate(77.52056884765625,12)" y="0" x="0" id="text-entity-users-33ae1e26-be31-5c1d-bf65-e859e9d0308e" class="er entityLabel">users</text><rect height="22" width="69.05792236328125" y="24" x="0" class="er attributeBoxOdd"/><text style="dominant-baseline: middle; font-size: 10.2px;" transform="translate(5,35)" y="0" x="0" id="text-entity-users-33ae1e26-be31-5c1d-bf65-e859e9d0308e-attr-1-type" class="er entityLabel">bigint</text><rect height="22" width="63.2955322265625" y="24" x="69.05792236328125" class="er attributeBoxOdd"/><text style="dominant-baseline: middle; font-size: 10.2px;" transform="translate(74.05792236328125,35)" y="0" x="0" id="text-entity-users-33ae1e26-be31-5c1d-bf65-e859e9d0308e-attr-1-name" class="er entityLabel">id</text><rect height="22" width="22.68768310546875" y="24" x="132.35345458984375" class="er attributeBoxOdd"/><text style="dominant-baseline: middle; font-size: 10.2px;" transform="translate(137.35345458984375,35)" y="0" x="0" id="text-entity-users-33ae1e26-be31-5c1d-bf65-e859e9d0308e-attr-1-key" class="er entityLabel">PK</text><rect height="22" width="69.05792236328125" y="46" x="0" class="er attributeBoxEven"/><text style="dominant-baseline: middle; font-size: 10.2px;" transform="translate(5,57)" y="0" x="0" id="text-entity-users-33ae1e26-be31-5c1d-bf65-e859e9d0308e-attr-2-type" class="er entityLabel">varchar(255)</text><rect height="22" width="63.2955322265625" y="46" x="69.05792236328125" class="er attributeBoxEven"/><text style="dominant-baseline: middle; font-size: 10.2px;" transform="translate(74.05792236328125,57)" y="0" x="0" id="text-entity-users-33ae1e26-be31-5c1d-bf65-e859e9d0308e-attr-2-name" class="er entityLabel">name</text><rect height="22" width="22.68768310546875" y="46" x="132.35345458984375" class="er attributeBoxEven"/><text style="dominant-baseline: middle; font-size: 10.2px;" transform="translate(137.35345458984375,57)" y="0" x="0" id="text-entity-users-33ae1e26-be31-5c1d-bf65-e859e9d0308e-attr-2-key" class="er entityLabel"/><rect height="22" width="69.05792236328125" y="68" x="0" class="er attributeBoxOdd"/><text style="dominant-baseline: middle; font-size: 10.2px;" transform="translate(5,79)" y="0" x="0" id="text-entity-users-33ae1e26-be31-5c1d-bf65-e859e9d0308e-attr-3-type" class="er entityLabel">varchar(255)</text><rect height="22" width="63.2955322265625" y="68" x="69.05792236328125" class="er attributeBoxOdd"/><text style="dominant-baseline: middle; font-size: 10.2px;" transform="translate(74.05792236328125,79)" y="0" x="0" id="text-entity-users-33ae1e26-be31-5c1d-bf65-e859e9d0308e-attr-3-name" class="er entityLabel">email</text><rect height="22" width="22.68768310546875" y="68" x="132.35345458984375" class="er attributeBoxOdd"/><text style="dominant-baseline: middle; font-size: 10.2px;" transform="translate(137.35345458984375,79)" y="0" x="0" id="text-entity-users-33ae1e26-be31-5c1d-bf65-e859e9d0308e-attr-3-key" class="er entityLabel"/><rect height="22" width="69.05792236328125" y="90" x="0" class="er attributeBoxEven"/><text style="dominant-baseline: middle; font-size: 10.2px;" transform="translate(5,101)" y="0" x="0" id="text-entity-users-33ae1e26-be31-5c1d-bf65-e859e9d0308e-attr-4-type" class="er entityLabel">varchar(255)</text><rect height="22" width="63.2955322265625" y="90" x="69.05792236328125" class="er attributeBoxEven"/><text style="dominant-baseline: middle; font-size: 10.2px;" transform="translate(74.05792236328125,101)" y="0" x="0" id="text-entity-users-33ae1e26-be31-5c1d-bf65-e859e9d0308e-attr-4-name" class="er entityLabel">password</text><rect height="22" width="22.68768310546875" y="90" x="132.35345458984375" class="er attributeBoxEven"/><text style="dominant-baseline: middle; font-size: 10.2px;" transform="translate(137.35345458984375,101)" y="0" x="0" id="text-entity-users-33ae1e26-be31-5c1d-bf65-e859e9d0308e-attr-4-key" class="er entityLabel"/><rect height="22" width="69.05792236328125" y="112" x="0" class="er attributeBoxOdd"/><text style="dominant-baseline: middle; font-size: 10.2px;" transform="translate(5,123)" y="0" x="0" id="text-entity-users-33ae1e26-be31-5c1d-bf65-e859e9d0308e-attr-5-type" class="er entityLabel">timestamp</text><rect height="22" width="63.2955322265625" y="112" x="69.05792236328125" class="er attributeBoxOdd"/><text style="dominant-baseline: middle; font-size: 10.2px;" transform="translate(74.05792236328125,123)" y="0" x="0" id="text-entity-users-33ae1e26-be31-5c1d-bf65-e859e9d0308e-attr-5-name" class="er entityLabel">created_at</text><rect height="22" width="22.68768310546875" y="112" x="132.35345458984375" class="er attributeBoxOdd"/><text style="dominant-baseline: middle; font-size: 10.2px;" transform="translate(137.35345458984375,123)" y="0" x="0" id="text-entity-users-33ae1e26-be31-5c1d-bf65-e859e9d0308e-attr-5-key" class="er entityLabel"/><rect height="22" width="69.05792236328125" y="134" x="0" class="er attributeBoxEven"/><text style="dominant-baseline: middle; font-size: 10.2px;" transform="translate(5,145)" y="0" x="0" id="text-entity-users-33ae1e26-be31-5c1d-bf65-e859e9d0308e-attr-6-type" class="er entityLabel">timestamp</text><rect height="22" width="63.2955322265625" y="134" x="69.05792236328125" class="er attributeBoxEven"/><text style="dominant-baseline: middle; font-size: 10.2px;" transform="translate(74.05792236328125,145)" y="0" x="0" id="text-entity-users-33ae1e26-be31-5c1d-bf65-e859e9d0308e-attr-6-name" class="er entityLabel">updated_at</text><rect height="22" width="22.68768310546875" y="134" x="132.35345458984375" class="er attributeBoxEven"/><text style="dominant-baseline: middle; font-size: 10.2px;" transform="translate(137.35345458984375,145)" y="0" x="0" id="text-entity-users-33ae1e26-be31-5c1d-bf65-e859e9d0308e-attr-6-key" class="er entityLabel"/></g><g transform="translate(20,31 )" id="entity-goods-395c1f45-6295-5a9d-826b-b6d3098cf4f1"><rect height="112" width="144.964599609375" y="0" x="0" class="er entityBox"/><text style="dominant-baseline: middle; text-anchor: middle; font-size: 12px;" transform="translate(72.4822998046875,12)" y="0" x="0" id="text-entity-goods-395c1f45-6295-5a9d-826b-b6d3098cf4f1" class="er entityLabel">goods</text><rect height="22" width="58.98138427734375" y="24" x="0" class="er attributeBoxOdd"/><text style="dominant-baseline: middle; font-size: 10.2px;" transform="translate(5,35)" y="0" x="0" id="text-entity-goods-395c1f45-6295-5a9d-826b-b6d3098cf4f1-attr-1-type" class="er entityLabel">bigint</text><rect height="22" width="63.2955322265625" y="24" x="58.98138427734375" class="er attributeBoxOdd"/><text style="dominant-baseline: middle; font-size: 10.2px;" transform="translate(63.98138427734375,35)" y="0" x="0" id="text-entity-goods-395c1f45-6295-5a9d-826b-b6d3098cf4f1-attr-1-name" class="er entityLabel">id</text><rect height="22" width="22.68768310546875" y="24" x="122.27691650390625" class="er attributeBoxOdd"/><text style="dominant-baseline: middle; font-size: 10.2px;" transform="translate(127.27691650390625,35)" y="0" x="0" id="text-entity-goods-395c1f45-6295-5a9d-826b-b6d3098cf4f1-attr-1-key" class="er entityLabel">PK</text><rect height="22" width="58.98138427734375" y="46" x="0" class="er attributeBoxEven"/><text style="dominant-baseline: middle; font-size: 10.2px;" transform="translate(5,57)" y="0" x="0" id="text-entity-goods-395c1f45-6295-5a9d-826b-b6d3098cf4f1-attr-2-type" class="er entityLabel">bigint</text><rect height="22" width="63.2955322265625" y="46" x="58.98138427734375" class="er attributeBoxEven"/><text style="dominant-baseline: middle; font-size: 10.2px;" transform="translate(63.98138427734375,57)" y="0" x="0" id="text-entity-goods-395c1f45-6295-5a9d-826b-b6d3098cf4f1-attr-2-name" class="er entityLabel">product_id</text><rect height="22" width="22.68768310546875" y="46" x="122.27691650390625" class="er attributeBoxEven"/><text style="dominant-baseline: middle; font-size: 10.2px;" transform="translate(127.27691650390625,57)" y="0" x="0" id="text-entity-goods-395c1f45-6295-5a9d-826b-b6d3098cf4f1-attr-2-key" class="er entityLabel">FK</text><rect height="22" width="58.98138427734375" y="68" x="0" class="er attributeBoxOdd"/><text style="dominant-baseline: middle; font-size: 10.2px;" transform="translate(5,79)" y="0" x="0" id="text-entity-goods-395c1f45-6295-5a9d-826b-b6d3098cf4f1-attr-3-type" class="er entityLabel">timestamp</text><rect height="22" width="63.2955322265625" y="68" x="58.98138427734375" class="er attributeBoxOdd"/><text style="dominant-baseline: middle; font-size: 10.2px;" transform="translate(63.98138427734375,79)" y="0" x="0" id="text-entity-goods-395c1f45-6295-5a9d-826b-b6d3098cf4f1-attr-3-name" class="er entityLabel">created_at</text><rect height="22" width="22.68768310546875" y="68" x="122.27691650390625" class="er attributeBoxOdd"/><text style="dominant-baseline: middle; font-size: 10.2px;" transform="translate(127.27691650390625,79)" y="0" x="0" id="text-entity-goods-395c1f45-6295-5a9d-826b-b6d3098cf4f1-attr-3-key" class="er entityLabel"/><rect height="22" width="58.98138427734375" y="90" x="0" class="er attributeBoxEven"/><text style="dominant-baseline: middle; font-size: 10.2px;" transform="translate(5,101)" y="0" x="0" id="text-entity-goods-395c1f45-6295-5a9d-826b-b6d3098cf4f1-attr-4-type" class="er entityLabel">timestamp</text><rect height="22" width="63.2955322265625" y="90" x="58.98138427734375" class="er attributeBoxEven"/><text style="dominant-baseline: middle; font-size: 10.2px;" transform="translate(63.98138427734375,101)" y="0" x="0" id="text-entity-goods-395c1f45-6295-5a9d-826b-b6d3098cf4f1-attr-4-name" class="er entityLabel">updated_at</text><rect height="22" width="22.68768310546875" y="90" x="122.27691650390625" class="er attributeBoxEven"/><text style="dominant-baseline: middle; font-size: 10.2px;" transform="translate(127.27691650390625,101)" y="0" x="0" id="text-entity-goods-395c1f45-6295-5a9d-826b-b6d3098cf4f1-attr-4-key" class="er entityLabel"/></g><g transform="translate(264.964599609375,20 )" id="entity-comments-ee4794a7-91e9-54fd-896e-9c6c78f4e4b0"><rect height="134" width="155.0411376953125" y="0" x="0" class="er entityBox"/><text style="dominant-baseline: middle; text-anchor: middle; font-size: 12px;" transform="translate(77.52056884765625,12)" y="0" x="0" id="text-entity-comments-ee4794a7-91e9-54fd-896e-9c6c78f4e4b0" class="er entityLabel">comments</text><rect height="22" width="69.05792236328125" y="24" x="0" class="er attributeBoxOdd"/><text style="dominant-baseline: middle; font-size: 10.2px;" transform="translate(5,35)" y="0" x="0" id="text-entity-comments-ee4794a7-91e9-54fd-896e-9c6c78f4e4b0-attr-1-type" class="er entityLabel">bigint</text><rect height="22" width="63.2955322265625" y="24" x="69.05792236328125" class="er attributeBoxOdd"/><text style="dominant-baseline: middle; font-size: 10.2px;" transform="translate(74.05792236328125,35)" y="0" x="0" id="text-entity-comments-ee4794a7-91e9-54fd-896e-9c6c78f4e4b0-attr-1-name" class="er entityLabel">id</text><rect height="22" width="22.68768310546875" y="24" x="132.35345458984375" class="er attributeBoxOdd"/><text style="dominant-baseline: middle; font-size: 10.2px;" transform="translate(137.35345458984375,35)" y="0" x="0" id="text-entity-comments-ee4794a7-91e9-54fd-896e-9c6c78f4e4b0-attr-1-key" class="er entityLabel">PK</text><rect height="22" width="69.05792236328125" y="46" x="0" class="er attributeBoxEven"/><text style="dominant-baseline: middle; font-size: 10.2px;" transform="translate(5,57)" y="0" x="0" id="text-entity-comments-ee4794a7-91e9-54fd-896e-9c6c78f4e4b0-attr-2-type" class="er entityLabel">bigint</text><rect height="22" width="63.2955322265625" y="46" x="69.05792236328125" class="er attributeBoxEven"/><text style="dominant-baseline: middle; font-size: 10.2px;" transform="translate(74.05792236328125,57)" y="0" x="0" id="text-entity-comments-ee4794a7-91e9-54fd-896e-9c6c78f4e4b0-attr-2-name" class="er entityLabel">product_id</text><rect height="22" width="22.68768310546875" y="46" x="132.35345458984375" class="er attributeBoxEven"/><text style="dominant-baseline: middle; font-size: 10.2px;" transform="translate(137.35345458984375,57)" y="0" x="0" id="text-entity-comments-ee4794a7-91e9-54fd-896e-9c6c78f4e4b0-attr-2-key" class="er entityLabel">FK</text><rect height="22" width="69.05792236328125" y="68" x="0" class="er attributeBoxOdd"/><text style="dominant-baseline: middle; font-size: 10.2px;" transform="translate(5,79)" y="0" x="0" id="text-entity-comments-ee4794a7-91e9-54fd-896e-9c6c78f4e4b0-attr-3-type" class="er entityLabel">varchar(255)</text><rect height="22" width="63.2955322265625" y="68" x="69.05792236328125" class="er attributeBoxOdd"/><text style="dominant-baseline: middle; font-size: 10.2px;" transform="translate(74.05792236328125,79)" y="0" x="0" id="text-entity-comments-ee4794a7-91e9-54fd-896e-9c6c78f4e4b0-attr-3-name" class="er entityLabel">comments</text><rect height="22" width="22.68768310546875" y="68" x="132.35345458984375" class="er attributeBoxOdd"/><text style="dominant-baseline: middle; font-size: 10.2px;" transform="translate(137.35345458984375,79)" y="0" x="0" id="text-entity-comments-ee4794a7-91e9-54fd-896e-9c6c78f4e4b0-attr-3-key" class="er entityLabel"/><rect height="22" width="69.05792236328125" y="90" x="0" class="er attributeBoxEven"/><text style="dominant-baseline: middle; font-size: 10.2px;" transform="translate(5,101)" y="0" x="0" id="text-entity-comments-ee4794a7-91e9-54fd-896e-9c6c78f4e4b0-attr-4-type" class="er entityLabel">timestamp</text><rect height="22" width="63.2955322265625" y="90" x="69.05792236328125" class="er attributeBoxEven"/><text style="dominant-baseline: middle; font-size: 10.2px;" transform="translate(74.05792236328125,101)" y="0" x="0" id="text-entity-comments-ee4794a7-91e9-54fd-896e-9c6c78f4e4b0-attr-4-name" class="er entityLabel">created_at</text><rect height="22" width="22.68768310546875" y="90" x="132.35345458984375" class="er attributeBoxEven"/><text style="dominant-baseline: middle; font-size: 10.2px;" transform="translate(137.35345458984375,101)" y="0" x="0" id="text-entity-comments-ee4794a7-91e9-54fd-896e-9c6c78f4e4b0-attr-4-key" class="er entityLabel"/><rect height="22" width="69.05792236328125" y="112" x="0" class="er attributeBoxOdd"/><text style="dominant-baseline: middle; font-size: 10.2px;" transform="translate(5,123)" y="0" x="0" id="text-entity-comments-ee4794a7-91e9-54fd-896e-9c6c78f4e4b0-attr-5-type" class="er entityLabel">timestamp</text><rect height="22" width="63.2955322265625" y="112" x="69.05792236328125" class="er attributeBoxOdd"/><text style="dominant-baseline: middle; font-size: 10.2px;" transform="translate(74.05792236328125,123)" y="0" x="0" id="text-entity-comments-ee4794a7-91e9-54fd-896e-9c6c78f4e4b0-attr-5-name" class="er entityLabel">updated_at</text><rect height="22" width="22.68768310546875" y="112" x="132.35345458984375" class="er attributeBoxOdd"/><text style="dominant-baseline: middle; font-size: 10.2px;" transform="translate(137.35345458984375,123)" y="0" x="0" id="text-entity-comments-ee4794a7-91e9-54fd-896e-9c6c78f4e4b0-attr-5-key" class="er entityLabel"/></g><g transform="translate(523.0948715209961,20 )" id="entity-categoryproduct-65b3baa0-125b-5708-8405-0c29c230682b"><rect height="134" width="145.5312957763672" y="0" x="0" class="er entityBox"/><text style="dominant-baseline: middle; text-anchor: middle; font-size: 12px;" transform="translate(72.7656478881836,12)" y="0" x="0" id="text-entity-categoryproduct-65b3baa0-125b-5708-8405-0c29c230682b" class="er entityLabel">category_product</text><rect height="22" width="58.98138427734375" y="24" x="0" class="er attributeBoxOdd"/><text style="dominant-baseline: middle; font-size: 10.2px;" transform="translate(5,35)" y="0" x="0" id="text-entity-categoryproduct-65b3baa0-125b-5708-8405-0c29c230682b-attr-1-type" class="er entityLabel">bigint</text><rect height="22" width="63.86222839355469" y="24" x="58.98138427734375" class="er attributeBoxOdd"/><text style="dominant-baseline: middle; font-size: 10.2px;" transform="translate(63.98138427734375,35)" y="0" x="0" id="text-entity-categoryproduct-65b3baa0-125b-5708-8405-0c29c230682b-attr-1-name" class="er entityLabel">id</text><rect height="22" width="22.68768310546875" y="24" x="122.84361267089844" class="er attributeBoxOdd"/><text style="dominant-baseline: middle; font-size: 10.2px;" transform="translate(127.84361267089844,35)" y="0" x="0" id="text-entity-categoryproduct-65b3baa0-125b-5708-8405-0c29c230682b-attr-1-key" class="er entityLabel">PK</text><rect height="22" width="58.98138427734375" y="46" x="0" class="er attributeBoxEven"/><text style="dominant-baseline: middle; font-size: 10.2px;" transform="translate(5,57)" y="0" x="0" id="text-entity-categoryproduct-65b3baa0-125b-5708-8405-0c29c230682b-attr-2-type" class="er entityLabel">bigint</text><rect height="22" width="63.86222839355469" y="46" x="58.98138427734375" class="er attributeBoxEven"/><text style="dominant-baseline: middle; font-size: 10.2px;" transform="translate(63.98138427734375,57)" y="0" x="0" id="text-entity-categoryproduct-65b3baa0-125b-5708-8405-0c29c230682b-attr-2-name" class="er entityLabel">product_id</text><rect height="22" width="22.68768310546875" y="46" x="122.84361267089844" class="er attributeBoxEven"/><text style="dominant-baseline: middle; font-size: 10.2px;" transform="translate(127.84361267089844,57)" y="0" x="0" id="text-entity-categoryproduct-65b3baa0-125b-5708-8405-0c29c230682b-attr-2-key" class="er entityLabel">FK</text><rect height="22" width="58.98138427734375" y="68" x="0" class="er attributeBoxOdd"/><text style="dominant-baseline: middle; font-size: 10.2px;" transform="translate(5,79)" y="0" x="0" id="text-entity-categoryproduct-65b3baa0-125b-5708-8405-0c29c230682b-attr-3-type" class="er entityLabel">bigint</text><rect height="22" width="63.86222839355469" y="68" x="58.98138427734375" class="er attributeBoxOdd"/><text style="dominant-baseline: middle; font-size: 10.2px;" transform="translate(63.98138427734375,79)" y="0" x="0" id="text-entity-categoryproduct-65b3baa0-125b-5708-8405-0c29c230682b-attr-3-name" class="er entityLabel">category_id</text><rect height="22" width="22.68768310546875" y="68" x="122.84361267089844" class="er attributeBoxOdd"/><text style="dominant-baseline: middle; font-size: 10.2px;" transform="translate(127.84361267089844,79)" y="0" x="0" id="text-entity-categoryproduct-65b3baa0-125b-5708-8405-0c29c230682b-attr-3-key" class="er entityLabel">FK</text><rect height="22" width="58.98138427734375" y="90" x="0" class="er attributeBoxEven"/><text style="dominant-baseline: middle; font-size: 10.2px;" transform="translate(5,101)" y="0" x="0" id="text-entity-categoryproduct-65b3baa0-125b-5708-8405-0c29c230682b-attr-4-type" class="er entityLabel">timestamp</text><rect height="22" width="63.86222839355469" y="90" x="58.98138427734375" class="er attributeBoxEven"/><text style="dominant-baseline: middle; font-size: 10.2px;" transform="translate(63.98138427734375,101)" y="0" x="0" id="text-entity-categoryproduct-65b3baa0-125b-5708-8405-0c29c230682b-attr-4-name" class="er entityLabel">created_at</text><rect height="22" width="22.68768310546875" y="90" x="122.84361267089844" class="er attributeBoxEven"/><text style="dominant-baseline: middle; font-size: 10.2px;" transform="translate(127.84361267089844,101)" y="0" x="0" id="text-entity-categoryproduct-65b3baa0-125b-5708-8405-0c29c230682b-attr-4-key" class="er entityLabel"/><rect height="22" width="58.98138427734375" y="112" x="0" class="er attributeBoxOdd"/><text style="dominant-baseline: middle; font-size: 10.2px;" transform="translate(5,123)" y="0" x="0" id="text-entity-categoryproduct-65b3baa0-125b-5708-8405-0c29c230682b-attr-5-type" class="er entityLabel">timestamp</text><rect height="22" width="63.86222839355469" y="112" x="58.98138427734375" class="er attributeBoxOdd"/><text style="dominant-baseline: middle; font-size: 10.2px;" transform="translate(63.98138427734375,123)" y="0" x="0" id="text-entity-categoryproduct-65b3baa0-125b-5708-8405-0c29c230682b-attr-5-name" class="er entityLabel">updated_at</text><rect height="22" width="22.68768310546875" y="112" x="122.84361267089844" class="er attributeBoxOdd"/><text style="dominant-baseline: middle; font-size: 10.2px;" transform="translate(127.84361267089844,123)" y="0" x="0" id="text-entity-categoryproduct-65b3baa0-125b-5708-8405-0c29c230682b-attr-5-key" class="er entityLabel"/></g><g transform="translate(573.3782196044922,309 )" id="entity-categories-a09d50f2-ac74-5856-9390-f2cc9b07f93b"><rect height="112" width="144.964599609375" y="0" x="0" class="er entityBox"/><text style="dominant-baseline: middle; text-anchor: middle; font-size: 12px;" transform="translate(72.4822998046875,12)" y="0" x="0" id="text-entity-categories-a09d50f2-ac74-5856-9390-f2cc9b07f93b" class="er entityLabel">categories</text><rect height="22" width="58.98138427734375" y="24" x="0" class="er attributeBoxOdd"/><text style="dominant-baseline: middle; font-size: 10.2px;" transform="translate(5,35)" y="0" x="0" id="text-entity-categories-a09d50f2-ac74-5856-9390-f2cc9b07f93b-attr-1-type" class="er entityLabel">bigint</text><rect height="22" width="63.2955322265625" y="24" x="58.98138427734375" class="er attributeBoxOdd"/><text style="dominant-baseline: middle; font-size: 10.2px;" transform="translate(63.98138427734375,35)" y="0" x="0" id="text-entity-categories-a09d50f2-ac74-5856-9390-f2cc9b07f93b-attr-1-name" class="er entityLabel">id</text><rect height="22" width="22.68768310546875" y="24" x="122.27691650390625" class="er attributeBoxOdd"/><text style="dominant-baseline: middle; font-size: 10.2px;" transform="translate(127.27691650390625,35)" y="0" x="0" id="text-entity-categories-a09d50f2-ac74-5856-9390-f2cc9b07f93b-attr-1-key" class="er entityLabel">PK</text><rect height="22" width="58.98138427734375" y="46" x="0" class="er attributeBoxEven"/><text style="dominant-baseline: middle; font-size: 10.2px;" transform="translate(5,57)" y="0" x="0" id="text-entity-categories-a09d50f2-ac74-5856-9390-f2cc9b07f93b-attr-2-type" class="er entityLabel">string</text><rect height="22" width="63.2955322265625" y="46" x="58.98138427734375" class="er attributeBoxEven"/><text style="dominant-baseline: middle; font-size: 10.2px;" transform="translate(63.98138427734375,57)" y="0" x="0" id="text-entity-categories-a09d50f2-ac74-5856-9390-f2cc9b07f93b-attr-2-name" class="er entityLabel">content</text><rect height="22" width="22.68768310546875" y="46" x="122.27691650390625" class="er attributeBoxEven"/><text style="dominant-baseline: middle; font-size: 10.2px;" transform="translate(127.27691650390625,57)" y="0" x="0" id="text-entity-categories-a09d50f2-ac74-5856-9390-f2cc9b07f93b-attr-2-key" class="er entityLabel"/><rect height="22" width="58.98138427734375" y="68" x="0" class="er attributeBoxOdd"/><text style="dominant-baseline: middle; font-size: 10.2px;" transform="translate(5,79)" y="0" x="0" id="text-entity-categories-a09d50f2-ac74-5856-9390-f2cc9b07f93b-attr-3-type" class="er entityLabel">timestamp</text><rect height="22" width="63.2955322265625" y="68" x="58.98138427734375" class="er attributeBoxOdd"/><text style="dominant-baseline: middle; font-size: 10.2px;" transform="translate(63.98138427734375,79)" y="0" x="0" id="text-entity-categories-a09d50f2-ac74-5856-9390-f2cc9b07f93b-attr-3-name" class="er entityLabel">created_at</text><rect height="22" width="22.68768310546875" y="68" x="122.27691650390625" class="er attributeBoxOdd"/><text style="dominant-baseline: middle; font-size: 10.2px;" transform="translate(127.27691650390625,79)" y="0" x="0" id="text-entity-categories-a09d50f2-ac74-5856-9390-f2cc9b07f93b-attr-3-key" class="er entityLabel"/><rect height="22" width="58.98138427734375" y="90" x="0" class="er attributeBoxEven"/><text style="dominant-baseline: middle; font-size: 10.2px;" transform="translate(5,101)" y="0" x="0" id="text-entity-categories-a09d50f2-ac74-5856-9390-f2cc9b07f93b-attr-4-type" class="er entityLabel">timestamp</text><rect height="22" width="63.2955322265625" y="90" x="58.98138427734375" class="er attributeBoxEven"/><text style="dominant-baseline: middle; font-size: 10.2px;" transform="translate(63.98138427734375,101)" y="0" x="0" id="text-entity-categories-a09d50f2-ac74-5856-9390-f2cc9b07f93b-attr-4-name" class="er entityLabel">updated_at</text><rect height="22" width="22.68768310546875" y="90" x="122.27691650390625" class="er attributeBoxEven"/><text style="dominant-baseline: middle; font-size: 10.2px;" transform="translate(127.27691650390625,101)" y="0" x="0" id="text-entity-categories-a09d50f2-ac74-5856-9390-f2cc9b07f93b-attr-4-key" class="er entityLabel"/></g><rect height="0" width="0" y="526" x="342.48516845703125" class="er relationshipLabelBox"/><text style="text-anchor: middle; dominant-baseline: middle; font-size: 12px;" y="526" x="342.48516845703125" id="rel438" class="er relationshipLabel"/><rect height="0" width="0" y="241.92739868164062" x="155.89825439453125" class="er relationshipLabelBox"/><text style="text-anchor: middle; dominant-baseline: middle; font-size: 12px;" y="241.92739868164062" x="155.89825439453125" id="rel439" class="er relationshipLabel"/><rect height="0" width="0" y="204" x="342.48516845703125" class="er relationshipLabelBox"/><text style="text-anchor: middle; dominant-baseline: middle; font-size: 12px;" y="204" x="342.48516845703125" id="rel440" class="er relationshipLabel"/><rect height="0" width="0" y="224.91317749023438" x="493.2159423828125" class="er relationshipLabelBox"/><text style="text-anchor: middle; dominant-baseline: middle; font-size: 12px;" y="224.91317749023438" x="493.2159423828125" id="rel441" class="er relationshipLabel"/><rect height="0" width="0" y="230.04238891601562" x="644.0757446289062" class="er relationshipLabelBox"/><text style="text-anchor: middle; dominant-baseline: middle; font-size: 12px;" y="230.04238891601562" x="644.0757446289062" id="rel442" class="er relationshipLabel"/></svg>